<svg width="942" height="546" viewBox="0 0 942 546" fill="none" xmlns="http://www.w3.org/2000/svg">
<path d="M934.369 0H820.811C817.517 0 814.715 2.11088 813.649 5.05629H793.174C788.96 5.05629 785.537 8.49874 785.537 12.7512V19.6729H765.793C761.578 19.6729 758.155 23.1153 758.155 27.3678V43.0275H739.142C734.927 43.0275 731.505 46.47 731.505 50.7224V74.2857H713.697C709.483 74.2857 706.06 77.7282 706.06 81.9806V112.619H689.933C685.719 112.619 682.296 116.061 682.296 120.314V157.205H668.319C664.105 157.205 660.682 160.648 660.682 164.9V207.216H653.282V179.873C653.282 175.626 649.866 172.178 645.645 172.178H638.593V129.862C638.593 125.616 635.176 122.167 630.956 122.167H620.87V101.199C620.87 96.9531 617.454 93.5045 613.233 93.5045H499.676C497.855 93.5045 496.186 94.1488 494.877 95.2165H468.804C464.59 95.2165 461.167 98.659 461.167 102.911V116.491H440.82C436.606 116.491 433.183 119.933 433.183 124.186V152.235H421.057C416.843 152.235 413.42 155.677 413.42 159.93V198.429H407.403C403.189 198.429 399.766 201.871 399.766 206.124V251.053H397.744C393.53 251.053 390.107 254.496 390.107 258.748V306.096H389.973C385.759 306.096 382.336 309.538 382.336 313.791V359.536H381.971C377.756 359.536 374.333 362.979 374.333 367.231V388.359C373.749 388.211 373.14 388.125 372.506 388.125H372.305V341.956C372.305 338.379 369.875 335.378 366.587 334.519V282.643C366.587 279.415 364.614 276.654 361.812 275.512V221.881C361.812 218.568 359.729 215.751 356.812 214.671V163.691C356.812 159.868 354.041 156.708 350.417 156.107V112.067C350.417 107.82 347.001 104.372 342.78 104.372H341.446V71.0212C341.446 66.7749 338.03 63.3263 333.809 63.3263H328.736V44.5677C328.736 40.3214 325.32 36.8729 321.099 36.8729H312.147V36.7072C312.147 32.4609 308.73 29.0123 304.509 29.0123H190.952C186.737 29.0123 183.315 32.4547 183.315 36.7072V41.6653H176.689C172.474 41.6653 169.051 45.1077 169.051 49.3602V71.6594H158.783C154.569 71.6594 151.146 75.1018 151.146 79.3543V115.086H138.296C134.082 115.086 130.659 118.528 130.659 122.781V168.042H116.274C112.059 168.042 108.637 171.484 108.637 175.737V226.613H93.7706C89.5562 226.613 86.1336 230.055 86.1336 234.307V286.895H71.8399C67.6255 286.895 64.2028 290.338 64.2028 294.59V344.981H51.5352C47.3208 344.981 43.8981 348.424 43.8981 352.676V396.962H33.9102C29.6958 396.962 26.2731 400.404 26.2731 404.656V438.928H20.0185C15.804 438.928 12.3814 442.37 12.3814 446.622V466.976H10.9075C6.69312 466.976 3.27043 470.419 3.27043 474.671V478.58C1.29721 479.973 0 482.274 0 484.888V599.305C0 603.551 3.4166 607 7.6371 607H121.195C125.409 607 128.832 603.558 128.832 599.305V595.396C130.805 594.003 132.102 591.702 132.102 589.088V568.734H133.576C137.791 568.734 141.213 565.292 141.213 561.039V526.768H147.468C151.682 526.768 155.105 523.326 155.105 519.073V474.788H165.093C169.307 474.788 172.73 471.345 172.73 467.093V416.702H185.398C189.612 416.702 193.035 413.259 193.035 409.007V356.419H207.328C211.543 356.419 214.965 352.977 214.965 348.724V297.849H229.832C230.946 297.849 232.006 297.603 232.962 297.167V336.305C232.962 339.532 234.935 342.294 237.737 343.435V397.066C237.737 400.643 240.167 403.644 243.455 404.503V456.379C243.455 460.625 246.872 464.074 251.092 464.074H251.293V510.243C251.293 514.49 254.71 517.938 258.93 517.938H262.42V554.645C262.42 558.892 265.837 562.34 270.057 562.34H278.005V585.578C278.005 589.825 281.422 593.273 285.642 593.273H299.223V599.035C299.223 603.281 302.64 606.73 306.86 606.73H420.418C424.352 606.73 427.586 603.729 428.006 599.882H449.017C453.232 599.882 456.655 596.44 456.655 592.187V575.349H470.382C474.596 575.349 478.019 571.907 478.019 567.654V537.163H485.181C489.395 537.163 492.818 533.721 492.818 529.468V489.343H495.522C499.737 489.343 503.159 485.901 503.159 481.648V435.902H503.525C507.739 435.902 511.162 432.46 511.162 428.207V380.86H511.296C515.51 380.86 518.933 377.418 518.933 373.165V328.235H520.955C525.169 328.235 528.592 324.793 528.592 320.54V301.131C529.633 301.671 530.815 301.978 532.069 301.978H538.756V351.934C538.756 356.18 542.173 359.629 546.393 359.629H555.395V403.515C555.395 407.761 558.811 411.21 563.032 411.21H577.009V435.326C577.009 439.572 580.425 443.02 584.646 443.02H698.204C699.994 443.02 701.639 442.395 702.942 441.351H727.467C731.681 441.351 735.104 437.909 735.104 433.656V391.611H746.992C751.207 391.611 754.629 388.168 754.629 383.916V337.004H762.881C767.096 337.004 770.519 333.562 770.519 329.309V286.993H781.871C786.085 286.993 789.508 283.551 789.508 279.299V242.407H803.485C807.699 242.407 811.122 238.965 811.122 234.712V204.074H827.249C831.463 204.074 834.886 200.632 834.886 196.379V172.816H852.693C856.908 172.816 860.331 169.373 860.331 165.121V149.461H879.344C883.559 149.461 886.981 146.019 886.981 141.766V134.845H906.726C910.021 134.845 912.822 132.734 913.888 129.788H934.363C938.577 129.788 942 126.346 942 122.093V7.69488C942 3.44858 938.583 0 934.363 0H934.369Z" fill="#1B1917"/>
</svg>
